<?xml version="1.0" standalone="no"?>
<!DOCTYPE svg PUBLIC "-//W3C//DTD SVG 20010904//EN"
 "http://www.w3.org/TR/2001/REC-SVG-20010904/DTD/svg10.dtd">
<svg version="1.0" xmlns="http://www.w3.org/2000/svg"
 width="128.000000pt" height="128.000000pt" viewBox="0 0 128.000000 128.000000"
 preserveAspectRatio="xMidYMid meet">

<g transform="translate(0.000000,128.000000) scale(0.100000,-0.100000)"
fill="#0095DA" stroke="none">
<path d="M630 1238 c0 -6 -7 -20 -16 -29 -13 -14 -21 -16 -36 -8 -11 6 -22 8
-26 5 -3 -3 0 -6 6 -6 7 0 12 -9 12 -19 0 -18 -6 -19 -77 -15 -60 4 -74 3 -60
-6 27 -17 20 -30 -15 -31 -30 -1 -30 -2 -9 -8 41 -11 37 -31 -6 -31 -29 0 -34
-3 -23 -10 25 -17 -17 -43 -60 -36 -117 17 -119 17 -60 -4 87 -30 150 -25 150
11 0 17 5 18 39 13 33 -5 40 -3 45 14 4 11 4 32 0 47 -7 26 -6 27 27 20 19 -4
49 -13 67 -21 32 -13 32 -13 32 17 0 22 5 29 20 29 15 0 20 -7 20 -25 0 -29 0
-29 64 -10 66 20 69 20 61 -15 -9 -42 10 -63 49 -56 26 5 33 2 41 -16 12 -29
44 -34 115 -18 71 16 102 34 40 24 -67 -11 -118 -10 -132 4 -10 10 -10 15 2
22 11 7 5 10 -22 10 -45 0 -50 14 -10 28 l27 10 -32 1 c-36 1 -43 14 -15 31
13 9 0 10 -55 7 -40 -2 -75 -2 -77 1 -3 2 -1 13 4 22 8 16 5 18 -23 16 -24 -1
-34 4 -42 22 -10 23 -25 30 -25 10z"/>
<path d="M237 1013 c-4 -3 -7 -16 -7 -28 0 -13 -7 -28 -16 -36 -40 -33 -75
-145 -49 -155 8 -4 15 -15 15 -25 0 -10 3 -19 8 -19 4 0 8 -54 9 -119 1 -95
-2 -121 -13 -125 -18 -7 -18 -32 0 -39 28 -11 61 18 77 68 13 42 21 52 50 63
32 12 31 12 -28 7 -63 -5 -63 -5 -63 22 0 14 5 56 11 91 12 65 30 95 74 120
28 15 14 23 -22 13 -24 -7 -33 -6 -37 5 -3 8 -12 14 -21 14 -27 0 -16 35 23
72 20 19 44 38 52 41 10 4 8 6 -6 6 -12 1 -24 8 -28 16 -6 16 -18 19 -29 8z"/>
<path d="M1018 1007 c-8 -8 -23 -17 -34 -20 -16 -4 -16 -5 -2 -6 21 -1 87 -70
88 -89 0 -8 -10 -22 -22 -32 -17 -13 -29 -15 -52 -9 -34 10 -49 2 -23 -12 64
-37 86 -83 87 -191 l0 -48 -62 5 c-60 5 -61 5 -29 -7 27 -11 37 -23 53 -66 20
-52 47 -76 76 -65 17 7 15 43 -2 43 -12 0 -14 20 -12 115 1 63 5 117 9 121 4
4 7 16 7 26 0 10 5 18 10 18 6 0 10 16 10 35 0 37 -20 86 -49 119 -9 10 -16
30 -16 44 0 30 -17 39 -37 19z"/>
<path d="M611 997 c0 -9 -6 -26 -13 -36 -16 -26 5 -51 42 -51 37 0 58 25 42
51 -7 10 -13 27 -13 36 -1 10 -4 2 -8 -17 -4 -22 -12 -35 -21 -35 -9 0 -17 13
-21 35 -4 19 -7 27 -8 17z"/>
<path d="M455 915 c-34 -57 -27 -81 31 -105 37 -16 44 -24 44 -47 0 -17 -12
-39 -32 -60 -44 -46 -45 -95 -1 -155 38 -52 81 -63 107 -26 23 33 20 58 -14
111 -16 26 -30 56 -30 66 0 17 20 87 35 123 6 15 2 15 -36 6 -39 -10 -44 -9
-61 11 -22 29 -24 81 -3 81 9 0 34 -12 56 -26 23 -14 43 -23 45 -21 7 7 -89
87 -103 87 -7 0 -24 -20 -38 -45z"/>
<path d="M736 925 c-25 -20 -46 -40 -46 -45 0 -14 5 -13 46 15 63 43 87 31 63
-32 -14 -38 -27 -44 -73 -37 -35 6 -38 4 -32 -12 4 -11 12 -44 18 -74 10 -53
9 -57 -21 -106 -35 -58 -38 -80 -15 -112 27 -39 67 -29 108 27 48 65 49 105 1
151 -52 51 -47 87 17 113 42 18 53 42 38 83 -12 30 -38 64 -50 64 -4 0 -28
-16 -54 -35z"/>
<path d="M596 763 c-11 -33 0 -43 45 -43 43 0 58 17 40 47 -10 17 -10 17 -11
1 0 -25 -57 -25 -62 0 -4 14 -5 13 -12 -5z"/>
<path d="M150 699 c0 -5 5 -7 10 -4 6 3 10 8 10 11 0 2 -4 4 -10 4 -5 0 -10
-5 -10 -11z"/>
<path d="M590 695 c0 -17 39 -75 50 -75 11 0 59 73 54 82 -3 4 -27 8 -55 8
-37 0 -49 -4 -49 -15z"/>
<path d="M1115 700 c3 -5 11 -10 16 -10 6 0 7 5 4 10 -3 6 -11 10 -16 10 -6 0
-7 -4 -4 -10z"/>
<path d="M296 541 c-10 -11 -20 -39 -23 -63 -3 -27 -13 -49 -27 -60 -15 -13
-17 -18 -6 -18 8 0 21 9 28 21 18 28 38 11 47 -39 4 -24 17 -45 37 -61 l30
-24 -25 49 c-27 53 -57 146 -57 176 0 13 7 18 25 18 14 0 25 5 25 10 0 17 -36
11 -54 -9z"/>
<path d="M930 550 c0 -5 11 -10 25 -10 18 0 25 -5 25 -19 0 -25 -38 -148 -57
-185 l-15 -28 26 18 c15 12 27 33 31 56 9 49 29 67 47 39 7 -12 21 -21 30 -21
18 0 22 -10 18 -40 -1 -11 1 -12 9 -4 17 16 3 43 -30 60 -22 11 -29 22 -29 44
0 35 -17 82 -33 92 -17 11 -47 10 -47 -2z"/>
<path d="M622 480 c-7 -11 -23 -20 -36 -20 -34 0 -38 -11 -15 -48 10 -18 20
-42 20 -55 1 -14 3 -17 6 -6 5 19 83 24 83 5 0 -6 11 10 25 36 14 26 25 52 25
58 0 5 -11 10 -25 10 -14 0 -34 9 -45 20 -11 11 -21 20 -23 20 -1 0 -8 -9 -15
-20z"/>
<path d="M204 379 c-3 -6 -1 -16 4 -21 8 -8 11 -5 9 11 -1 24 -3 25 -13 10z"/>
<path d="M460 340 c-8 -5 -10 -10 -5 -10 6 0 20 -3 33 -6 16 -5 22 -2 22 10 0
18 -27 21 -50 6z"/>
<path d="M770 334 c0 -11 5 -14 16 -10 9 3 23 6 32 6 15 0 15 2 2 10 -23 15
-50 12 -50 -6z"/>
<path d="M398 291 c-14 -5 -14 -9 -3 -24 12 -16 13 -16 18 5 7 26 7 27 -15 19z"/>
<path d="M860 287 c1 -27 16 -36 27 -18 10 16 9 20 -8 24 -11 3 -19 0 -19 -6z"/>
<path d="M457 262 c-10 -19 -13 -33 -7 -42 8 -13 10 -12 10 2 0 39 21 24 49
-36 17 -35 31 -69 31 -76 0 -7 7 -10 15 -6 21 8 65 -11 65 -28 0 -7 -7 -19
-15 -26 -8 -7 -15 -17 -15 -23 0 -6 7 -1 16 11 19 28 41 28 72 0 l25 -23 -14
23 c-8 12 -17 22 -21 22 -5 0 -8 6 -8 13 0 17 45 38 65 31 10 -4 15 0 15 13 0
10 4 23 9 29 6 5 17 27 26 49 15 39 15 39 -2 15 -21 -29 -78 -85 -110 -107
-19 -12 -25 -13 -41 -1 -71 50 -132 124 -132 159 0 29 -15 30 -33 1z"/>
<path d="M800 281 c0 -5 -3 -17 -6 -26 -4 -10 -2 -15 6 -13 7 2 16 -8 20 -22
l7 -25 8 29 c6 20 4 31 -3 34 -7 2 -12 10 -12 18 0 8 -4 14 -10 14 -5 0 -10
-4 -10 -9z"/>
</g>
</svg>
