<?xml version="1.0" standalone="no"?>
<!DOCTYPE svg PUBLIC "-//W3C//DTD SVG 20010904//EN"
 "http://www.w3.org/TR/2001/REC-SVG-20010904/DTD/svg10.dtd">
<svg version="1.0" xmlns="http://www.w3.org/2000/svg"
 width="128.000000pt" height="128.000000pt" viewBox="0 0 128.000000 128.000000"
 preserveAspectRatio="xMidYMid meet">

<g transform="translate(0.000000,128.000000) scale(0.100000,-0.100000)"
fill="#82141C" stroke="none">
<path d="M555 1201 c-72 -60 -89 -65 -121 -30 -28 31 -34 23 -34 -42 0 -56 -3
-65 -43 -117 -45 -59 -67 -94 -67 -109 0 -5 15 -14 33 -21 44 -16 75 -50 83
-90 6 -28 4 -32 -15 -32 -27 0 -58 15 -88 43 l-23 20 0 -20 c0 -31 69 -162 92
-174 16 -9 24 -7 43 11 15 14 30 20 42 16 45 -14 92 -158 61 -183 -11 -9 -21
-9 -43 3 -15 8 -30 12 -33 10 -14 -15 99 -235 125 -243 11 -4 36 62 47 125 6
33 -23 203 -43 255 -6 16 -23 44 -37 62 -58 76 -79 186 -49 257 26 64 119 127
168 114 43 -10 108 -66 128 -109 34 -75 17 -185 -40 -264 -44 -61 -52 -115
-58 -408 -5 -239 -4 -268 9 -257 9 7 21 40 27 75 17 89 39 151 67 193 14 20
24 37 22 38 -2 1 -15 7 -30 14 -40 17 -52 72 -33 145 40 154 93 208 133 137 9
-16 20 -30 24 -30 20 0 129 213 116 226 -4 3 -27 -11 -53 -30 -25 -20 -58 -36
-72 -36 -23 0 -24 3 -17 32 9 46 29 72 75 102 46 31 45 34 -28 127 -39 50 -43
60 -43 112 0 61 -9 69 -44 42 -31 -23 -43 -19 -121 40 -41 30 -77 55 -82 55
-4 0 -39 -27 -78 -59z"/>
<path d="M595 913 c-49 -58 -49 -60 -15 -110 17 -26 35 -64 42 -85 6 -20 15
-35 19 -32 12 7 79 153 79 170 0 18 -69 94 -84 93 -6 0 -24 -16 -41 -36z"/>
</g>
</svg>
